<svg width="25" height="26" viewBox="0 0 25 26" fill="none" xmlns="http://www.w3.org/2000/svg">
<g clip-path="url(#clip0_46_1471)">
<path d="M7.00781 6.42188C7.61719 6.42188 8.09766 5.94141 8.09766 5.33203C8.09766 4.73438 7.61719 4.24219 7.00781 4.24219C6.42188 4.24219 5.91797 4.74609 5.91797 5.33203C5.91797 5.92969 6.42188 6.42188 7.00781 6.42188ZM7.00781 10.0078C7.61719 10.0078 8.09766 9.51562 8.09766 8.91797C8.09766 8.30859 7.61719 7.83984 7.00781 7.83984C6.41016 7.83984 5.91797 8.32031 5.91797 8.91797C5.91797 9.51562 6.41016 10.0078 7.00781 10.0078ZM7.00781 13.7578C7.61719 13.7578 8.09766 13.2656 8.09766 12.668C8.09766 12.0586 7.61719 11.5781 7.00781 11.5781C6.42188 11.5781 5.91797 12.0703 5.91797 12.668C5.91797 13.2539 6.42188 13.7578 7.00781 13.7578ZM10.3125 6.07031H17.5664C17.9648 6.07031 18.293 5.74219 18.293 5.33203C18.293 4.93359 17.9648 4.60547 17.5664 4.60547H10.3125C9.91406 4.60547 9.58594 4.93359 9.58594 5.33203C9.58594 5.74219 9.91406 6.07031 10.3125 6.07031ZM10.3125 9.64453H17.5664C17.9766 9.64453 18.293 9.32812 18.293 8.91797C18.293 8.50781 17.9766 8.19141 17.5664 8.19141H10.3125C9.90234 8.19141 9.58594 8.50781 9.58594 8.91797C9.58594 9.32812 9.90234 9.64453 10.3125 9.64453ZM10.3125 13.3945H17.5664C17.9648 13.3945 18.293 13.0664 18.293 12.668C18.293 12.2695 17.9766 11.9414 17.5664 11.9414H10.3125C9.90234 11.9414 9.58594 12.2695 9.58594 12.668C9.58594 13.0664 9.91406 13.3945 10.3125 13.3945ZM2.25 21.457C2.25 23.9062 3.45703 25.125 5.88281 25.125H18.3281C20.7539 25.125 21.9609 23.9062 21.9609 21.457V3.67969C21.9609 1.24219 20.7539 0 18.3281 0H5.88281C3.45703 0 2.25 1.24219 2.25 3.67969V21.457ZM4.13672 21.4219V3.71484C4.13672 2.54297 4.75781 1.88672 5.97656 1.88672H18.2344C19.4531 1.88672 20.0742 2.54297 20.0742 3.71484V21.4219C20.0742 22.5938 19.4531 23.2383 18.2344 23.2383H5.97656C4.75781 23.2383 4.13672 22.5938 4.13672 21.4219Z" fill="#1B1C1E"/>
</g>
<defs>
<clipPath id="clip0_46_1471">
<rect width="19.7109" height="25.1367" fill="white" transform="translate(2.25)"/>
</clipPath>
</defs>
</svg>
