<svg width="24" height="24" viewBox="0 0 24 24" fill="none" xmlns="http://www.w3.org/2000/svg">
<g clip-path="url(#clip0_3_2242)">
<path d="M19.0195 20.0742L20.2031 18.9727L13.5234 12.375L21.5391 7.76953L20.7539 6.41016L12.8672 10.9336V1.53516H11.2969V12.1172C11.2969 12.375 11.3555 12.5859 11.5781 12.7969L19.0195 20.0742ZM11.9531 23.9062C18.4922 23.9062 23.9062 18.4805 23.9062 11.9531C23.9062 5.41406 18.4805 0 11.9414 0C5.41406 0 0 5.41406 0 11.9531C0 18.4805 5.42578 23.9062 11.9531 23.9062ZM11.9531 21.9141C6.42188 21.9141 2.00391 17.4844 2.00391 11.9531C2.00391 6.42188 6.41016 1.99219 11.9414 1.99219C17.4727 1.99219 21.9141 6.42188 21.9141 11.9531C21.9141 17.4844 17.4844 21.9141 11.9531 21.9141Z" fill="#1B1C1E"/>
</g>
<defs>
<clipPath id="clip0_3_2242">
<rect width="23.9062" height="23.918" fill="white"/>
</clipPath>
</defs>
</svg>
