<svg width="24" height="26" viewBox="0 0 24 26" fill="none" xmlns="http://www.w3.org/2000/svg">
<g clip-path="url(#clip0_46_897)">
<path d="M14.2498 5.10938C15.6677 5.10938 16.8045 3.97266 16.8045 2.55469C16.8045 1.13672 15.6677 0 14.2498 0C12.8318 0 11.6951 1.13672 11.6951 2.55469C11.6951 3.97266 12.8318 5.10938 14.2498 5.10938ZM10.242 15.3047L14.7302 17.8242L11.8357 20.3086C11.2146 20.8359 11.2263 21.5273 11.6013 21.9492C11.988 22.3828 12.6795 22.4883 13.324 21.9375L17.367 18.4922C17.9177 18.0234 17.8357 17.0156 17.1677 16.582L12.7732 13.6992L13.6404 10.6641C13.7576 10.2305 14.2615 10.1719 14.5193 10.5469L15.8084 12.4336C16.113 12.8672 16.6638 13.043 17.1677 12.8086L20.8826 11.1562C21.5388 10.8633 21.7849 10.2891 21.5037 9.69141C21.2107 9.10547 20.6482 8.92969 19.992 9.22266L17.0505 10.5234L15.0232 7.72266C13.9685 6.26953 12.656 5.67188 10.4998 5.83594L6.38649 6.12891C5.73024 6.17578 5.28492 6.59766 5.19117 7.27734L4.64039 11.4492C4.53492 12.1758 4.89821 12.6797 5.54274 12.75C6.19899 12.8086 6.62086 12.4336 6.71461 11.707L7.21852 8.29688L8.87086 8.17969C9.23414 8.14453 9.59742 8.40234 9.46852 8.85938L8.50758 12.2109C7.94508 14.1914 9.23414 14.7305 10.242 15.3047ZM2.40211 25.4297C2.83571 25.793 3.50367 25.8398 4.10133 25.2656L7.89821 21.5039C8.21461 21.1875 8.28492 21.1172 8.48414 20.625L10.0779 16.5L9.69117 16.2891C8.80055 15.8086 8.17946 15.3164 7.75758 14.7891L6.36305 19.7227L2.42555 23.6484C1.80446 24.2578 1.92164 25.0078 2.40211 25.4297Z" fill="#1B1C1E"/>
</g>
<defs>
<clipPath id="clip0_46_897">
<rect width="19.6185" height="25.8633" fill="white" transform="translate(2)"/>
</clipPath>
</defs>
</svg>
