<svg width="25" height="25" viewBox="0 0 25 25" fill="none" xmlns="http://www.w3.org/2000/svg">
<g clip-path="url(#clip0_46_1557)">
<path d="M15.4453 3.65625H23.4609C23.9531 3.65625 24.3633 3.26953 24.3633 2.76562C24.3633 2.27344 23.9531 1.88672 23.4609 1.88672H15.4453C14.9531 1.88672 14.5664 2.27344 14.5664 2.76562C14.5664 3.26953 14.9531 3.65625 15.4453 3.65625ZM15.4453 9.79688H23.4609C23.9531 9.79688 24.3633 9.41016 24.3633 8.90625C24.3633 8.41406 23.9531 8.02734 23.4609 8.02734H15.4453C14.9531 8.02734 14.5664 8.41406 14.5664 8.90625C14.5664 9.41016 14.9531 9.79688 15.4453 9.79688ZM1.62891 15.9375H23.4609C23.9531 15.9375 24.3633 15.5391 24.3633 15.0469C24.3633 14.5547 23.9531 14.168 23.4609 14.168H1.62891C1.13672 14.168 0.75 14.5547 0.75 15.0469C0.75 15.5391 1.13672 15.9375 1.62891 15.9375ZM1.62891 22.0664H23.4609C23.9531 22.0664 24.3633 21.6797 24.3633 21.1875C24.3633 20.6953 23.9531 20.2969 23.4609 20.2969H1.62891C1.13672 20.2969 0.75 20.6953 0.75 21.1875C0.75 21.6797 1.13672 22.0664 1.62891 22.0664ZM6.71484 11.918C9.9375 11.918 12.668 9.21094 12.668 5.95312C12.668 2.69531 9.97266 0 6.71484 0C3.44531 0 0.761719 2.69531 0.761719 5.95312C0.761719 9.23438 3.44531 11.918 6.71484 11.918ZM6 9.16406C5.80078 9.16406 5.56641 9.08203 5.41406 8.91797L3.43359 6.73828C3.29297 6.59766 3.23438 6.375 3.23438 6.21094C3.23438 5.78906 3.5625 5.47266 3.96094 5.47266C4.21875 5.47266 4.40625 5.58984 4.52344 5.73047L5.96484 7.28906L8.82422 3.31641C8.96484 3.12891 9.17578 3 9.44531 3C9.83203 3 10.1836 3.30469 10.1836 3.72656C10.1836 3.85547 10.125 4.00781 10.0195 4.16016L6.60938 8.89453C6.49219 9.05859 6.25781 9.16406 6 9.16406Z" fill="#1B1C1E"/>
</g>
<defs>
<clipPath id="clip0_46_1557">
<rect width="23.6133" height="24.0352" fill="white" transform="translate(0.75)"/>
</clipPath>
</defs>
</svg>
