<svg width="28" height="24" viewBox="0 0 28 24" fill="none" xmlns="http://www.w3.org/2000/svg">
<g clip-path="url(#clip0_46_1463)">
<path d="M5.26172 17.9258H8.13281C8.82422 17.9258 9.28125 17.457 9.28125 16.8008V14.6328C9.28125 13.9648 8.82422 13.5078 8.13281 13.5078H5.26172C4.57031 13.5078 4.11328 13.9648 4.11328 14.6328V16.8008C4.11328 17.457 4.57031 17.9258 5.26172 17.9258ZM0.949219 9.33594H26.6016V6.67578H0.949219V9.33594ZM3.67969 22.0273H23.8594C26.3203 22.0273 27.5391 20.8203 27.5391 18.4062V5.64453C27.5391 3.23047 26.3203 2.01172 23.8594 2.01172H3.67969C1.23047 2.01172 0 3.23047 0 5.64453V18.4062C0 20.8203 1.23047 22.0273 3.67969 22.0273ZM3.70312 20.1406C2.53125 20.1406 1.88672 19.5195 1.88672 18.3008V5.75C1.88672 4.53125 2.53125 3.89844 3.70312 3.89844H23.8359C24.9844 3.89844 25.6523 4.53125 25.6523 5.75V18.3008C25.6523 19.5195 24.9844 20.1406 23.8359 20.1406H3.70312Z" fill="#FDFDFD"/>
</g>
<defs>
<clipPath id="clip0_46_1463">
<rect width="27.5391" height="20.0273" fill="white" transform="translate(0 2)"/>
</clipPath>
</defs>
</svg>
