<svg width="25" height="24" viewBox="0 0 25 24" fill="none" xmlns="http://www.w3.org/2000/svg">
<g clip-path="url(#clip0_46_1745)">
<path d="M12.6953 16.9492V12.7305L12.6133 10.832L13.6094 11.8516L14.6406 12.9062C14.8047 13.0703 15.0273 13.1641 15.2617 13.1641C15.7305 13.1641 16.082 12.8359 16.082 12.3555C16.082 12.0977 15.9766 11.8984 15.7891 11.7344L12.4492 8.65234C12.2031 8.42969 12.0156 8.34766 11.793 8.34766C11.5703 8.34766 11.3828 8.42969 11.1367 8.65234L7.79688 11.7344C7.60938 11.8984 7.50391 12.0977 7.50391 12.3555C7.50391 12.8359 7.84375 13.1641 8.32422 13.1641C8.54688 13.1641 8.79297 13.0703 8.94531 12.9062L9.97656 11.8516L10.9727 10.832L10.9023 12.7305V16.9492C10.9023 17.4297 11.3125 17.8281 11.793 17.8281C12.2734 17.8281 12.6953 17.4297 12.6953 16.9492ZM0.25 8.79297C0.25 13.7852 4.43359 18.6953 11.043 22.9141C11.2891 23.0664 11.6523 23.2305 11.8867 23.2305C12.1328 23.2305 12.4844 23.0664 12.7422 22.9141C19.3516 18.6953 23.5352 13.7852 23.5352 8.79297C23.5352 4.64453 20.6875 1.71484 16.8789 1.71484C14.7109 1.71484 12.9531 2.74609 11.8867 4.32812C10.8438 2.75781 9.07422 1.71484 6.89453 1.71484C3.09766 1.71484 0.25 4.64453 0.25 8.79297ZM2.13672 8.79297C2.13672 5.67578 4.15234 3.60156 6.87109 3.60156C9.08594 3.60156 10.3398 4.97266 11.1016 6.14453C11.418 6.61328 11.6172 6.74219 11.8867 6.74219C12.168 6.74219 12.3438 6.60156 12.6836 6.14453C13.4922 4.99609 14.7109 3.60156 16.9023 3.60156C19.6328 3.60156 21.6484 5.67578 21.6484 8.79297C21.6484 13.1523 17.043 17.8516 12.1328 21.1094C12.0156 21.1914 11.9336 21.25 11.8867 21.25C11.8516 21.25 11.7695 21.1914 11.6523 21.1094C6.74219 17.8516 2.13672 13.1523 2.13672 8.79297Z" fill="#1B1C1E"/>
</g>
<defs>
<clipPath id="clip0_46_1745">
<rect width="23.2852" height="22.2305" fill="white" transform="translate(0.25 1)"/>
</clipPath>
</defs>
</svg>
